<svg width="74" height="100" viewBox="0 0 74 100" fill="none" xmlns="http://www.w3.org/2000/svg">
<g clip-path="url(#clip0_966_413)">
<path d="M74 50.2888L69.2359 37.69L72.7575 29.6049L73.0167 29.4073L69.2054 28.6474L71.7437 25.6079L64.6776 16.1018L65.9429 11.6945L66.0344 11.3754L55.5534 7.82675L50.7969 0.113982V0H50.7511L50.6216 0.0987842L42.473 3.61702L37.0076 0.0455927L31.4203 3.61702L23.6376 0.18997L23.4623 0.113982H23.287C23.287 0.113982 23.2184 0.144377 23.1955 0.174772L23.1422 0.227964L22.9135 0.600304C22.9135 0.600304 22.8677 0.668693 22.8449 0.714286L22.7686 0.843465L22.6695 0.995441L22.3265 1.54255C22.2884 1.61094 22.2503 1.67933 22.2046 1.74772L22.014 2.05927L21.9302 2.20365L21.8082 2.38602L21.6176 2.69757C21.5871 2.75076 21.5567 2.80395 21.5185 2.85714L21.1374 3.47264C21.0841 3.56383 21.0307 3.65502 20.9697 3.7386L20.6343 4.29331L20.4742 4.54407L20.0855 5.17477C20.055 5.22796 20.0245 5.28115 19.9864 5.33435L19.834 5.58511C19.7882 5.66869 19.7349 5.74468 19.6815 5.82827L19.5367 6.06383L19.3995 6.29179L19.2623 6.50456L19.1403 6.70973L19.026 6.8997L18.9116 7.07447L18.8125 7.23404L18.7363 7.36322L18.7134 7.41641V7.5228L18.6448 7.63678V7.68997L8.25525 11.1094L8.12567 11.1702L8.04182 11.2158L9.45962 16.0638L2.31726 25.6535L4.88607 28.693L2.11908 29.2477L1.55501 29.3465L1.66172 29.5441L4.71075 37.6368L0 50.2432V50.3647L6.41821 60.3116V60.3723L6.60115 60.5319L6.66213 60.6307L15.4357 68.6626L15.5806 68.769L15.7406 68.8982L21.4042 73.6626L22.6162 63.1383H28.1731L32.8152 68.7614V68.845H41.3906V68.7994L46.0861 63.1155H51.4219L52.6339 73.6398L58.2136 68.9438L58.4804 68.7234L67.536 60.4103L67.6351 60.304L74 50.2888ZM54.8597 7.97112L46.3605 19.035L50.7283 1.29179L54.8597 7.97112ZM66.1716 59.1793L66.8043 60.2356L58.5338 67.8343L55.9802 41.9985L66.1716 59.1793ZM45.9946 62.4848L43.5935 57.8116H47.7631L50.3471 53.617L51.3686 62.4696L45.9946 62.4848ZM36.7408 55.0228V57.1277H32.5637L36.7408 55.0228ZM22.6924 62.4848L23.7062 53.6322L26.2979 57.8267H30.4979L28.0587 62.4848H22.6924ZM37.061 15.3723L31.8471 4.17173L37.0076 0.851064L42.0766 4.17173L37.061 15.3723ZM36.7408 31.7933V42.8723H34.5379L36.7408 31.7933ZM19.1555 40.0912L28.8591 32.4924L23.4394 51.5501L19.1555 40.0912ZM18.0808 41.9605L15.6644 66.497L15.5272 67.8267L7.27956 60.2356L18.0808 41.9605ZM8.93366 12.0745L27.2279 20.5319L11.5406 21.2918L10.1914 16.4666L8.93366 12.0745ZM22.8754 28.1915L18.7134 38.9362L13.9188 26.8997H13.8274L11.8531 22.0441L22.8754 28.1915ZM23.7748 27.9331L12.9127 21.8541L28.1578 21.155L28.7676 27.9103L23.7748 27.9331ZM29.1106 30.9726L24.9106 28.693H28.9048L29.1106 30.9726ZM29.7204 30.9726L29.5604 28.5942L28.8972 21.2994L36.4512 27.8495L29.7204 30.9726ZM23.4547 28.693H23.508L28.8972 31.6565L19.369 39.0653L23.4547 28.693ZM3.17862 25.6535L9.64256 16.9149L10.9994 21.7325L13.1337 27.0517L5.58735 28.5182L3.17862 25.6535ZM18.8354 41.193L23.1117 52.5912L16.4267 65.8131L18.8354 41.193ZM24.0492 51.9225L29.7509 31.8541V31.7325L36.6112 28.5638L33.7223 43.1307L24.0492 51.9225ZM33.9586 43.8906L36.7332 49.6201V54.1793L30.8105 57.1657H26.6714L24.0492 52.9255L33.9586 43.8906ZM36.5274 15.8131L28.9048 20.1064L31.5575 5.13678L36.5274 15.8131ZM36.7332 16.4514V27.0897L29.3088 20.6611L33.0363 18.5714C35.3307 17.2948 36.3216 16.7173 36.7408 16.459H36.7332V16.4514ZM3.12526 29.7264L13.4996 27.6672L18.157 39.4073L3.12526 29.7264ZM7.27956 58.8374L6.79172 59.6505L0.693655 50.19L18.1341 40.5015L7.27956 58.8374ZM36.718 43.6398V47.8875L34.7208 43.6322H36.718V43.6398ZM41.4897 57.1353H37.4802V55.114L41.4897 57.1353ZM37.4802 47.8723V43.6322H39.5078L37.4802 47.8723ZM37.4802 54.2629V49.6277L40.2015 43.9438L50.027 52.8419L47.3591 57.1657H43.2429L37.4802 54.2629ZM39.7213 42.8647H37.4802V31.7325L39.7213 42.8647ZM59.9821 27.5076L55.378 38.9666L51.2085 28.2523L62.1545 22.1733L59.9897 27.4924V27.5076H59.9821ZM49.2038 28.6474L45.0037 30.9271L45.2095 28.6474H49.2038ZM50.5987 28.6474H50.652L54.7072 39.0653L45.2171 31.6109L50.5987 28.6474ZM61.2703 21.8617L50.309 27.9787H45.24L45.8574 21.1398L61.2703 21.8617ZM44.4244 31.0182L37.7699 27.8115L45.1562 21.3374L44.5387 28.1003L44.4244 31.0182ZM40.6131 43.2447L37.6708 28.579L44.3558 31.8161L49.8898 51.6489L40.6131 43.2447ZM55.9497 39.4453L60.7062 27.6672L71.3092 29.7036L55.9497 39.4453ZM68.4736 28.465L60.9273 26.9985L63.0159 21.8541L64.4489 16.8921L70.8824 25.6535L68.4736 28.465ZM62.4975 21.2386L50.027 20.6915L46.978 20.5395L65.0587 12.3252L62.4975 21.2386ZM45.5602 19.1717L42.8846 4.19453L50.0346 1.02584L45.5602 19.1717ZM37.5793 15.8435L42.3434 5.13678L45.0037 20.0304L37.5793 15.8435ZM37.5031 27.0669V16.5729L44.7903 20.6687L37.5031 27.0669ZM54.9359 40.19L50.5987 51.7781L45.2629 32.5076L54.9359 40.19ZM55.2408 41.6033L57.6267 65.7827L51.0484 52.8116L55.2408 41.6033ZM57.2075 39.4073L71.7361 30.2888L68.6413 37.4012L57.2075 39.4073ZM56.5138 40.2052L68.6489 38.0395L72.8337 49.2097L56.5138 40.2052ZM56.0564 40.7219L73.253 50.2128L67.2464 59.6656L56.0564 40.7219ZM46.2995 20.0912L55.3018 8.45745L64.83 11.6793L46.2995 20.0912ZM31.0544 4.20213L28.3789 19.1185L23.9197 1.04863L31.0544 4.20213ZM9.27668 11.4818L18.7134 8.37386L27.609 19.9468L9.27668 11.4818ZM17.3033 40.2052L1.12814 49.2097L5.29007 38.0471L17.3033 40.2052ZM17.0288 39.4453L5.35867 37.3708L2.63741 30.2128L17.0288 39.4453ZM16.1446 68.3587L16.2132 67.6368L22.9363 54.4225L20.8782 72.3252L16.1446 68.3587ZM31.1916 57.8571H36.7408V68.1307H33.1506L28.699 62.7356L31.1916 57.8571ZM37.5031 68.1003V57.8875H42.8389L45.4306 62.9179L41.1162 68.1307L37.5031 68.1003ZM19.2089 7.88754L23.287 1.33739L27.6014 18.8146L19.2089 7.88754ZM53.198 72.3252L51.1323 54.5289L57.8478 67.7432L57.9164 68.3967L53.198 72.3252ZM11.5406 85.2432V96.4894H16.0532V99.6657H7.76741V85.228L11.5406 85.2432ZM27.9444 95.4711H20.7029C20.7029 96.0638 20.9164 96.6337 21.3051 97.0821C21.7015 97.424 22.2198 97.5912 22.7382 97.5532C23.1269 97.5532 23.5157 97.462 23.8663 97.2948C24.1255 97.1429 24.3389 96.9149 24.4761 96.6489H27.7995C27.5937 97.4088 27.1897 98.0927 26.6257 98.6398C25.5509 99.6049 24.1255 100.091 22.6772 99.9772C21.1984 100.046 19.7501 99.5137 18.6601 98.5106C17.7073 97.5304 17.1889 96.2082 17.227 94.848C17.1965 93.4574 17.7377 92.1125 18.7134 91.1246C19.7958 90.1444 21.2289 89.6353 22.6848 89.7188C24.0492 89.6656 25.3908 90.1368 26.4199 91.0334C27.4718 92.1201 28.0282 93.5942 27.9444 95.1064V95.4711ZM24.7505 93.4802C24.659 93.0927 24.4609 92.7356 24.1864 92.4468C23.7977 92.0897 23.2794 91.9073 22.7534 91.9225C22.2274 91.8921 21.7167 92.0821 21.3432 92.4468C21.0688 92.728 20.8859 93.0927 20.8249 93.4802H24.7505ZM39.706 98.3967C37.2134 100.524 33.5393 100.524 31.0468 98.3967C29.0725 96.4666 29.042 93.3131 30.9782 91.345C31.001 91.3222 31.0239 91.2994 31.0468 91.2766C32.213 90.1976 33.768 89.6201 35.3611 89.6732C36.9619 89.6201 38.5245 90.1976 39.706 91.2766C40.6893 92.196 41.2458 93.4802 41.2305 94.8252C41.2382 96.1778 40.6817 97.4696 39.6908 98.3967H39.706ZM33.8061 93.2827C32.9219 94.1185 32.8914 95.5167 33.7299 96.3982C34.1492 96.8313 34.7285 97.0821 35.3307 97.0821C35.9023 97.0745 36.4512 96.8389 36.8552 96.4362C37.2744 96.041 37.5183 95.4939 37.526 94.9164C37.526 93.7006 36.535 92.7128 35.3154 92.7052C34.759 92.7128 34.2254 92.9179 33.8061 93.2827ZM46.6502 83.9362V90.965C47.3896 90.152 48.4415 89.696 49.5391 89.7112C50.8045 89.6884 52.0393 90.152 52.9693 91.0106C53.9907 92.0137 54.5624 93.3815 54.5548 94.81C54.5929 96.2462 54.0365 97.6368 53.0303 98.6626C52.1232 99.5517 50.896 100.038 49.623 100C48.4796 100.038 47.3896 99.5213 46.6883 98.617V99.6732H43.1819V83.8982L46.6502 83.9362ZM50.3166 96.4438C50.7359 96.0486 50.9798 95.5015 50.9951 94.924C50.9951 94.3085 50.7511 93.7234 50.3166 93.2827C49.9127 92.8723 49.3638 92.6444 48.7921 92.652C48.1976 92.6444 47.6183 92.8799 47.2066 93.3055C46.8179 93.7386 46.5892 94.2857 46.5587 94.8632C46.574 95.4939 46.8484 96.0866 47.321 96.5046C47.7402 96.8769 48.2814 97.0821 48.8455 97.0897C49.4096 97.0593 49.9355 96.8161 50.3166 96.4058V96.4438ZM58.2822 84.0653C59.3646 84.0653 60.2412 84.9316 60.2489 86.0106C60.2565 87.0897 59.3799 87.9635 58.2975 87.9711C57.2151 87.9711 56.3385 87.1049 56.3309 86.0258C56.3309 86.0258 56.3309 86.0182 56.3309 86.0106C56.308 84.9392 57.1541 84.0501 58.2289 84.0274C58.2441 84.0274 58.267 84.0274 58.2822 84.0274V84.0653ZM60.0202 90.038V99.6657H56.5443V90L60.0202 90.038ZM66.225 92.8723V99.7112H62.7567V92.8723H61.6438V90.038H62.7567V86.8541H66.225V90.038H68.1992V92.8723H66.225Z" fill="white"/>
</g>
<defs>
<clipPath id="clip0_966_413">
<rect width="74" height="100" fill="white"/>
</clipPath>
</defs>
</svg>
