<svg width="46" height="55" viewBox="0 0 46 55" fill="none" xmlns="http://www.w3.org/2000/svg">
<path d="M26.2857 0.342775L19.7143 0.342776L19.7143 40.8428L13.1429 40.8428L13.1429 47.5928L19.7143 47.5928L19.7143 54.3428L26.2857 54.3428L26.2857 47.5928L32.8571 47.5928L32.8571 40.8428L26.2857 40.8428L26.2857 0.342775ZM39.4286 34.0928L39.4286 40.8428L32.8571 40.8428L32.8571 34.0928L39.4286 34.0928ZM39.4286 34.0928L39.4286 27.3428L46 27.3428L46 34.0928L39.4286 34.0928ZM6.57142 34.0928L6.57143 40.8428L13.1429 40.8428L13.1429 34.0928L6.57142 34.0928ZM6.57142 34.0928L6.57142 27.3428L-2.36042e-06 27.3428L-1.77031e-06 34.0928L6.57142 34.0928Z" fill="#CCCCCC"/>
</svg>
